<svg width="93" height="94" viewBox="0 0 93 94" fill="none" xmlns="http://www.w3.org/2000/svg">
<path d="M74.186 0.00205203C63.8608 0.164943 48.1489 10.1446 55.2161 30.5564C57.5768 30.0954 60.0145 30.213 62.3083 30.8798C55.5172 10.8169 70.4254 3.78662 78.2262 5.40986C86.1754 7.06416 89.5891 17.2608 85.52 21.1872C81.802 24.7751 76.6733 26.0245 73.4411 22.7009C68.378 17.4952 73.4319 10.3419 80.8571 11.1837C72.0356 6.52393 64.5627 16.3452 69.2907 23.1771C74.1706 30.2284 85.4352 31.0798 90.592 22.2005C96.7055 11.6735 86.3432 0.191505 74.6918 0.00205203C74.523 -0.00068401 74.3542 -0.00068401 74.1854 0.00205203H74.186ZM40.8239 0.331739C43.4854 7.88018 39.986 10.6837 36.9723 14.4185C35.2016 8.97061 30.5583 6.24912 26.1266 6.29483C21.3278 6.34404 16.7801 9.63233 16.4098 16.2128C21.2254 6.42041 33.7309 8.42275 33.5669 22.0968H33.5727C33.4954 22.9417 33.4868 23.8575 33.5669 24.8556C35.0089 24.1127 36.564 23.6136 38.169 23.3784C38.9366 23.2663 39.7022 23.212 40.4577 23.2198C41.0601 23.2275 41.6615 23.2724 42.2585 23.3542C43.7049 15.8897 54.1842 12.586 49.5217 0.331739H40.8239ZM13.3461 0.685646C-4.39877 6.18369 -3.14077 26.0872 9.44576 34.5782C2.5481 38.4536 -0.922016 49.1583 6.27193 58.2356C2.93599 48.1894 7.75044 39.2853 15.2198 39.1134C18.0702 36.4892 21.8686 35.0454 25.7788 35.146C26.0326 33.927 26.4365 32.7442 26.9811 31.6245C5.97896 32.5415 -2.86225 12.4505 13.3461 0.685646ZM39.9938 26.8759C39.5629 26.886 39.1262 26.9228 38.6938 26.9856C33.3901 27.7649 29.5727 32.1313 29.1418 37.2519L28.977 39.1864L27.0544 38.8993C21.9815 38.1407 16.8518 40.9106 14.8717 45.9003C12.8917 50.8899 14.7237 56.4206 18.937 59.3464L20.5297 60.4513L19.3335 61.9708C16.1801 65.9972 15.9805 71.7104 19.2905 75.8933C22.5995 80.0739 28.2827 81.2462 32.9198 79.0792L34.6838 78.255L35.3917 80.0741C37.2573 84.8565 42.2717 87.912 47.5987 87.1296C52.876 86.3542 56.6489 82.0534 57.1143 76.961L57.2911 75.0388L59.2012 75.3194C64.2741 76.0784 69.4038 73.3147 71.3838 68.3247C73.3639 63.3349 71.526 57.8052 67.3127 54.8788L65.7139 53.7675L66.9223 52.2421C70.1196 48.2192 70.3286 42.4257 67.002 38.222C63.6729 34.0155 57.9151 32.7907 53.2813 34.9872L51.5235 35.8231L50.8032 34.0165C49.7315 31.3274 47.7667 29.2132 45.2672 28.0106C43.754 27.2833 42.1 26.896 40.4211 26.8759C40.2786 26.8739 40.1376 26.872 39.9938 26.8759ZM79.0868 35.5673C90.5575 40.7345 90.477 54.9241 76.8895 57.6497C76.0526 57.6416 75.2163 57.6947 74.3872 57.8085C75.2677 59.6726 75.7539 61.6984 75.8155 63.7591C86.777 64.3651 91.5518 76.3313 84.1651 86.5925C96.0323 78.921 93.5981 65.2956 84.8487 59.92C96.3366 54.3413 94.2993 36.3321 79.0868 35.5673ZM42.0571 37.2149L43.2104 45.0763C44.0854 45.081 44.9702 45.1786 45.8471 45.3817L46.842 42.8856L50.2354 44.2282L49.2405 46.7366C50.0042 47.1868 50.6975 47.7155 51.328 48.3056L57.5657 43.3677L59.8301 46.2304L53.5864 51.1739C54.021 51.9415 54.3709 52.7539 54.6301 53.597L57.3278 53.2005L57.859 56.8075L55.1549 57.204C55.1492 58.0793 55.047 58.9513 54.8503 59.8042L62.2596 62.7401L60.9106 66.1335L53.5008 63.1915C53.0587 63.9449 52.5347 64.647 51.9383 65.2853L53.6415 67.4396L50.7788 69.7042L49.0698 67.5435C48.3081 67.9771 47.5018 68.3271 46.6649 68.5872L47.8247 76.4853L44.2172 77.0165L43.0579 69.1243C42.1871 69.1218 41.3193 69.0236 40.47 68.8313L39.4629 71.3704L36.0694 70.0216L37.0704 67.4946C36.3081 67.0501 35.5977 66.522 34.9524 65.92L28.7083 70.864L26.444 68.0013L32.6881 63.0575C32.2556 62.2997 31.9056 61.4975 31.6444 60.6649L28.9772 61.0556L28.446 57.4423L31.1012 57.0517C31.1032 56.1767 31.2001 55.2968 31.4001 54.4208L24.0211 51.4911L25.3637 48.0978L32.7426 51.0274C33.1895 50.265 33.7197 49.5546 34.3237 48.9095L32.6635 46.8099L35.526 44.5454L37.1924 46.6513C37.9563 46.2178 38.7646 45.8678 39.6034 45.6075L38.4497 37.7462L42.0571 37.2149ZM42.936 48.7142C39.6692 48.7815 36.6235 50.764 35.337 54.006C34.9273 55.0287 34.724 56.1224 34.7387 57.2241C34.7534 58.3257 34.9859 59.4136 35.4227 60.4251C35.8594 61.4366 36.492 62.3517 37.2838 63.1177C38.0757 63.8838 39.0112 64.4857 40.0366 64.8888C41.0594 65.2984 42.1531 65.5017 43.2548 65.487C44.3564 65.4722 45.4443 65.2398 46.4558 64.8029C47.4673 64.3661 48.3824 63.7335 49.1484 62.9416C49.9145 62.1498 50.5163 61.2142 50.9194 60.1888C51.329 59.166 51.5323 58.0723 51.5176 56.9706C51.5028 55.8689 51.2704 54.781 50.8335 53.7695C50.3967 52.7581 49.7642 51.843 48.9723 51.0769C48.1804 50.3109 47.2448 49.709 46.2194 49.306C45.1754 48.8916 44.0589 48.6904 42.936 48.7142ZM6.10689 72.3224C-2.19155 74.9204 -2.30913 88.8874 8.10884 91.5304C17.637 93.9472 23.8944 89.4474 26.7002 83.7237C24.7426 83.5413 22.8292 82.9667 21.0727 82.0333C19.0585 85.7833 15.2631 88.5323 9.2563 86.7331C2.52193 84.7149 1.21294 76.2521 6.10728 72.3224H6.10689ZM72.678 73.3298C71.0752 75.3853 68.9768 76.9554 66.6292 77.9317C70.7006 81.4272 72.1711 86.4044 70.2549 93.1603H77.4631C79.6534 85.3028 77.3049 78.1241 72.678 73.3298Z" fill="white"/>
</svg>
