<svg width="100" height="100" viewBox="0 0 100 100" fill="none" xmlns="http://www.w3.org/2000/svg">
<path d="M77.9238 3.41798C67.5986 3.58087 51.8867 13.5606 58.9539 33.9723C61.3146 33.5113 63.7523 33.6289 66.0461 34.2957C59.255 14.2328 74.1632 7.20255 81.964 8.82579C89.9132 10.4801 93.3269 20.6768 89.2578 24.6031C85.5398 28.191 80.4111 29.4404 77.1789 26.1168C72.1158 20.9111 77.1697 13.7578 84.5949 14.5996C75.7734 9.93985 68.3005 19.7611 73.0285 26.593C77.9084 33.6443 89.173 34.4957 94.3298 25.6164C100.443 15.0895 90.081 3.60743 78.4296 3.41798C78.2608 3.41524 78.092 3.41524 77.9232 3.41798H77.9238ZM44.5617 3.74766C47.2232 11.2961 43.7238 14.0996 40.7101 17.8344C38.9394 12.3865 34.2961 9.66505 29.8644 9.71075C25.0656 9.75997 20.5179 13.0482 20.1476 19.6287C24.9632 9.83634 37.4687 11.8387 37.3046 25.5127H37.3105C37.2332 26.3576 37.2246 27.2734 37.3046 28.2715C38.7467 27.5287 40.3018 27.0296 41.9068 26.7943C42.6744 26.6822 43.44 26.6279 44.1955 26.6357C44.7979 26.6435 45.3993 26.6883 45.9962 26.7701C47.4427 19.3057 57.922 16.002 53.2595 3.74766H44.5617ZM17.0839 4.10157C-0.660981 9.59962 0.597027 29.5031 13.1836 37.9941C6.28589 41.8695 2.81578 52.5742 10.0097 61.6516C6.67378 51.6053 11.4882 42.7012 18.9576 42.5293C21.808 39.9051 25.6064 38.4613 29.5166 38.5619C29.7704 37.343 30.1743 36.1601 30.7189 35.0404C9.71675 35.9574 0.875542 15.8664 17.0839 4.10157ZM43.7316 30.2918C43.3007 30.302 42.864 30.3387 42.4316 30.4016C37.1279 31.1809 33.3105 35.5473 32.8796 40.6678L32.7148 42.6024L30.7921 42.3152C25.7193 41.5567 20.5896 44.3266 18.6095 49.3162C16.6294 54.3059 18.4615 59.8365 22.6748 62.7623L24.2675 63.8672L23.0712 65.3867C19.9179 69.4131 19.7183 75.1264 23.0283 79.3092C26.3373 83.4898 32.0205 84.6621 36.6576 82.4951L38.4216 81.6709L39.1294 83.49C40.9951 88.2725 46.0095 91.3279 51.3365 90.5455C56.6138 89.7701 60.3867 85.4693 60.8521 80.377L61.0289 78.4547L62.939 78.7354C68.0119 79.4943 73.1416 76.7307 75.1216 71.7406C77.1017 66.7508 75.2638 61.2211 71.0505 58.2947L69.4517 57.1834L70.6601 55.658C73.8574 51.6352 74.0664 45.8416 70.7398 41.6379C67.4107 37.4315 61.6529 36.2066 57.0191 38.4031L55.2613 39.2391L54.541 37.4324C53.4693 34.7434 51.5044 32.6291 49.005 31.4266C47.4918 30.6992 45.8378 30.3119 44.1589 30.2918C44.0164 30.2899 43.8753 30.2879 43.7316 30.2918ZM82.8246 38.9832C94.2953 44.1504 94.2148 58.34 80.6273 61.0656C79.7904 61.0576 78.9541 61.1106 78.125 61.2244C79.0054 63.0885 79.4917 65.1143 79.5533 67.175C90.5148 67.7811 95.2896 79.7473 87.9029 90.0084C99.7701 82.3369 97.3359 68.7115 88.5865 63.3359C100.074 57.7572 98.0371 39.7481 82.8246 38.9832ZM45.7949 40.6309L46.9482 48.4922C47.8232 48.4969 48.708 48.5945 49.5849 48.7977L50.5798 46.3016L53.9732 47.6441L52.9783 50.1525C53.7419 50.6027 54.4353 51.1315 55.0658 51.7215L61.3035 46.7836L63.5679 49.6463L57.3242 54.5899C57.7587 55.3574 58.1087 56.1698 58.3679 57.0129L61.0656 56.6164L61.5968 60.2234L58.8927 60.6199C58.887 61.4952 58.7848 62.3672 58.588 63.2201L65.9974 66.1561L64.6484 69.5494L57.2386 66.6074C56.7965 67.3608 56.2725 68.063 55.6761 68.7012L57.3793 70.8555L54.5166 73.1201L52.8076 70.9594C52.0459 71.393 51.2396 71.743 50.4027 72.0031L51.5625 79.9012L47.955 80.4324L46.7957 72.5402C45.9249 72.5378 45.057 72.4395 44.2078 72.2473L43.2007 74.7863L39.8072 73.4375L40.8082 70.9106C40.0459 70.466 39.3355 69.9379 38.6902 69.3359L32.446 74.2799L30.1818 71.4172L36.4259 66.4734C35.9934 65.7156 35.6434 64.9135 35.3822 64.0809L32.715 64.4715L32.1837 60.8582L34.839 60.4676C34.841 59.5926 34.9378 58.7127 35.1378 57.8367L27.7589 54.907L29.1015 51.5137L36.4804 54.4434C36.9273 53.6809 37.4575 52.9706 38.0615 52.3254L36.4013 50.2258L39.2638 47.9613L40.9302 50.0672C41.6941 49.6337 42.5024 49.2838 43.3412 49.0234L42.1875 41.1621L45.7949 40.6309ZM46.6738 52.1301C43.407 52.1975 40.3613 54.1799 39.0748 57.4219C38.6651 58.4447 38.4618 59.5383 38.4765 60.64C38.4912 61.7417 38.7237 62.8295 39.1604 63.841C39.5972 64.8525 40.2298 65.7676 41.0216 66.5337C41.8135 67.2997 42.749 67.9016 43.7744 68.3047C44.7972 68.7143 45.8909 68.9176 46.9926 68.9029C48.0942 68.8882 49.1821 68.6557 50.1936 68.2188C51.2051 67.782 52.1202 67.1495 52.8862 66.3576C53.6523 65.5657 54.2541 64.6301 54.6572 63.6047C55.0668 62.5819 55.2701 61.4882 55.2554 60.3865C55.2406 59.2848 55.0082 58.1969 54.5713 57.1855C54.1345 56.174 53.5019 55.2589 52.7101 54.4928C51.9182 53.7268 50.9826 53.1249 49.9572 52.7219C48.9132 52.3076 47.7967 52.1063 46.6738 52.1301ZM9.84468 75.7383C1.54625 78.3363 1.42867 92.3033 11.8466 94.9463C21.3748 97.3631 27.6322 92.8633 30.438 87.1397C28.4804 86.9572 26.5669 86.3826 24.8105 85.4492C22.7962 89.1992 19.0009 91.9482 12.9941 90.149C6.25972 88.1309 4.95074 79.668 9.84507 75.7383H9.84468ZM76.4158 76.7457C74.813 78.8012 72.7146 80.3713 70.3669 81.3477C74.4384 84.8432 75.9089 89.8203 73.9927 96.5762H81.2009C83.3912 88.7188 81.0427 81.54 76.4158 76.7457Z" fill="#2C3930"/>
</svg>
