<svg width="48" height="48" viewBox="0 0 100 100" fill="none" xmlns="http://www.w3.org/2000/svg">
<path d="M29.5459 53.5049C26.0857 53.5049 22.7993 55.0177 20.4004 57.6562C18.0058 60.29 16.6817 63.834 16.6816 67.5029C16.6816 69.5119 17.0886 71.3434 17.7344 73.0371L19.0977 76.6123L20.5273 73.0635C22.1102 69.1351 25.5738 66.5039 29.5459 66.5039C33.5178 66.5041 36.9806 69.1352 38.5635 73.0635L39.9932 76.6123L41.3564 73.0371C42.0022 71.3434 42.4092 69.5119 42.4092 67.5029C42.4091 63.834 41.085 60.29 38.6904 57.6562C36.2916 55.0179 33.0059 53.505 29.5459 53.5049ZM70.4541 53.5049C66.9941 53.505 63.7084 55.0179 61.3096 57.6562C58.915 60.29 57.5909 63.834 57.5908 67.5029C57.5908 69.5119 57.9978 71.3434 58.6436 73.0371L60.0068 76.6123L61.4365 73.0635C63.0151 69.1459 66.6083 66.5041 70.4541 66.5039C74.3 66.5039 77.8941 69.1457 79.4727 73.0635L80.9023 76.6123L82.2656 73.0371C82.9114 71.3434 83.3184 69.5119 83.3184 67.5029C83.3183 63.834 81.9942 60.29 79.5996 57.6562C77.2007 55.0177 73.9143 53.5049 70.4541 53.5049ZM42.4092 10.0078C42.4078 8.48947 42.7706 7.0042 43.4521 5.70312C44.1334 4.40269 45.1046 3.34053 46.2539 2.60938C47.4018 1.87914 48.6915 1.50094 49.9951 1.5C51.2987 1.49908 52.5895 1.8749 53.7383 2.60352C54.8883 3.33296 55.8602 4.39408 56.543 5.69336C57.226 6.99341 57.5905 8.47872 57.5908 9.99707C57.5911 11.5153 57.2273 13.0004 56.5449 14.3008C55.8628 15.6005 54.8909 16.6615 53.7412 17.3916L53.0459 17.834V26.5078H59.0908C75.722 26.5078 89.4091 41.3468 89.4092 60.0039V61.5039H95.4541C96.9945 61.5039 98.5 62.945 98.5 65.0039V80.002C98.5 82.0608 96.9945 83.502 95.4541 83.502H89.4092V90.001C89.4092 94.8595 85.9041 98.4999 81.8184 98.5H18.1816C16.2171 98.4999 14.3003 97.643 12.8633 96.0625C11.4219 94.4772 10.5908 92.2987 10.5908 90.001V83.502H4.5459C3.00552 83.502 1.5 82.0608 1.5 80.002V65.0039C1.5 62.945 3.00552 61.5039 4.5459 61.5039H10.5908V60.0039C10.5909 41.3468 24.278 26.5078 40.9092 26.5078H46.9541V17.8262L46.248 17.3857C43.9901 15.9785 42.4092 13.2268 42.4092 10.0088V10.0078Z" fill="#FFFFFF" stroke="#2C3930" stroke-width="3"/>
</svg>
